<?xml version="1.0" encoding="utf-8"?>
<!-- Generator: Adobe Illustrator 18.0.0, SVG Export Plug-In . SVG Version: 6.00 Build 0)  -->
<!DOCTYPE svg PUBLIC "-//W3C//DTD SVG 1.1//EN" "http://www.w3.org/Graphics/SVG/1.1/DTD/svg11.dtd">
<svg version="1.1" xmlns="http://www.w3.org/2000/svg" xmlns:xlink="http://www.w3.org/1999/xlink" x="0px" y="0px"
	 viewBox="0 0 1024 1400" enable-background="new 0 0 1024 1400" xml:space="preserve">
<g id="Layer_1" display="none">
	<rect id="_x3C_Compound_Path_x3E__302_" x="-73.5" y="-90" display="inline" fill="#D0D2D3" width="1190.5" height="1190.5"/>
	<path fill="#FFFFFF" d="M-73.5-90v1190.5h1190.5V-90H-73.5z M521.8,958.8c-250.5,0-453.5-203.1-453.5-453.5S271.3,51.7,521.8,51.7
		c250.5,0,453.5,203.1,453.5,453.5S772.3,958.8,521.8,958.8z"/>
	<path display="inline" fill="#FFFFFF" d="M875.8,373c9.6-6.9,14.7-19.6,9.9-33c-2.2-6.1-6.7-11.1-12.4-14.1
		c-6.5-3.4-12.8-4.1-18.5-3.1c-2.8,0.5-5.6-0.9-6.9-3.5c-17.5-33.1-40-63.7-67.2-90.9c-28-28-59.5-51-93.7-68.7
		c-2.4-1.2-3.9-3.8-3.6-6.5c0.7-5.9-0.6-12.3-5-19.1c-3.1-4.6-7.6-8.3-12.8-10.1c-12.6-4.3-24.6,0.1-31.5,8.7
		c-1.7,2.2-4.6,3.1-7.2,2.2c-36.2-11.3-74.3-17.2-113.4-17.2c-39,0-77.2,5.9-113.4,17.2c-2.6,0.8-5.5-0.1-7.2-2.2
		c-6.9-8.6-18.8-13-31.4-8.7c-5.3,1.8-9.8,5.4-12.9,10c-4.6,6.8-5.9,13.4-5.2,19.3c0.3,2.7-1.2,5.3-3.6,6.5
		c-34.1,17.7-65.7,40.7-93.6,68.7c-27.2,27.2-49.7,57.9-67.2,90.9c-1.3,2.5-4.1,4-6.9,3.5c-5.7-1-12-0.3-18.5,3.1
		c-5.7,3-10.2,8-12.4,14.1c-4.8,13.4,0.3,26.1,9.9,33c2.3,1.6,3.2,4.6,2.3,7.3c-11.7,36.8-17.8,75.6-17.8,115.3
		c0,37.4,5.4,74,15.8,108.8c0.8,2.6-0.1,5.3-2.1,7c-8.7,7.3-12.9,19.8-7.7,32.7c2.2,5.4,6.2,10,11.4,12.7c5.5,3,10.8,4,15.8,3.7
		c2.7-0.2,5.1,1.4,6.3,3.8c18,36,41.8,69.2,71.1,98.4c27.9,27.9,59.5,51,93.6,68.6c2.5,1.3,4.1,4,3.7,6.8c-0.7,5,0,10.4,2.6,16
		c2.8,6.1,7.9,11,14.2,13.4c13.3,5.1,26.1,0.3,33.2-9c1.7-2.2,4.6-3,7.2-2.2c36.1,11.2,74,17.1,112.8,17.1
		c38.8,0,76.8-5.8,112.8-17.1c2.6-0.8,5.5,0,7.2,2.2c7,9.3,19.7,14,33,9.1c6.3-2.4,11.4-7.2,14.2-13.2c2.7-5.6,3.4-11.1,2.7-16.2
		c-0.4-2.7,1-5.4,3.4-6.7c34.2-17.7,65.9-40.8,93.9-68.8c29.3-29.3,53.1-62.5,71.1-98.4c1.2-2.4,3.7-4,6.3-3.8
		c5,0.3,10.4-0.8,15.9-3.8c5.1-2.8,9.2-7.3,11.3-12.8c5.1-12.9,1-25.3-7.7-32.6c-2-1.7-2.9-4.5-2.1-7
		c10.4-34.9,15.8-71.4,15.8-108.8c0-39.7-6.1-78.5-17.8-115.3C872.6,377.6,873.5,374.6,875.8,373z M859.6,604.9
		c-15.4,0-27.9,12.5-27.9,27.9c0,8.8,4.1,16.6,10.4,21.7c2.4,2,3.2,5.3,1.8,8.1c-35.1,69.2-91.2,125.9-160,161.7
		c-2.6,1.3-5.8,0.9-7.8-1.3c-7.4-8-19.4-11.7-31.8-6.8c-5.4,2.1-9.9,6.1-12.7,11.2c-3,5.4-4.1,10.6-3.9,15.5c0.1,3-1.8,5.6-4.6,6.5
		c-34.7,10.8-71.6,16.6-109.8,16.6c-38.2,0-75.1-5.8-109.8-16.7c-2.8-0.9-4.7-3.6-4.6-6.5c0.2-4.9-1-10.2-4-15.5
		c-2.8-5-7.3-9-12.7-11.2c-12.4-4.9-24.4-1.2-31.8,6.8c-2,2.1-5.2,2.6-7.8,1.3c-68.7-35.8-124.8-92.5-159.9-161.7
		c-1.4-2.8-0.6-6.1,1.8-8.1c6.3-5.1,10.4-12.9,10.4-21.7c0-15.4-12.5-27.9-27.9-27.9c-0.7,0-1.4,0-2.2,0.1c-3.1,0.3-6-1.7-6.9-4.7
		C148.3,567.1,143,532,143,495.7c0-39.4,6.2-77.3,17.6-112.9c0.9-2.8,3.5-4.6,6.5-4.5c0,0,0,0,0.1,0c15.4,0,27.9-12.5,27.9-27.9
		c0-7.6-3-14.5-8-19.5c-2.1-2.1-2.6-5.2-1.3-7.8c35.1-66.4,89.9-120.9,156.5-155.7c2.6-1.4,5.9-0.8,7.9,1.4
		c5.1,5.8,12.6,9.4,20.9,9.4c15.4,0,27.9-12.5,27.9-27.9c0-0.5,0-1,0-1.5c-0.2-3.1,1.7-5.9,4.6-6.8c34.7-10.8,71.6-16.7,109.9-16.7
		c38.2,0,75.1,5.8,109.8,16.6c2.9,0.9,4.8,3.7,4.6,6.8c0,0.5,0,1,0,1.5c0,15.4,12.5,27.9,27.9,27.9c8.3,0,15.8-3.7,20.9-9.5
		c2-2.2,5.3-2.8,7.9-1.4C751,202.1,805.8,256.6,840.9,323c1.4,2.6,0.8,5.7-1.3,7.8c-4.9,5-8,11.9-8,19.5c0,15.4,12.5,27.9,27.9,27.9
		c0,0,0,0,0,0c2.9,0,5.6,1.8,6.5,4.5c11.4,35.6,17.6,73.6,17.6,112.9c0,36.3-5.3,71.5-15.1,104.7c-0.9,3-3.8,4.9-6.9,4.7
		C861,604.9,860.3,604.9,859.6,604.9z"/>
	<g display="inline">
		<path id="_x3C_Compound_Path_x3E__245_" fill="#FFFFFF" d="M315.7,649.4c-33.8-42.7-54-96.6-54-155.3
			c0-138.2,112.1-250.3,250.3-250.3c58.7,0,112.6,20.2,155.3,54l27.8-35.1c-50.3-39.9-113.9-63.7-183.1-63.7
			c-162.9,0-295,132.1-295,295c0,69.2,23.8,132.7,63.7,183L315.7,649.4z"/>
		<path id="_x3C_Compound_Path_x3E__244_" fill="#FFFFFF" d="M743.5,311.1l-35.1,27.8c33.8,42.7,53.9,96.6,53.9,155.2
			c0,138.2-112.1,250.3-250.3,250.3c-58.6,0-112.5-20.2-155.2-53.9L329,725.6c50.3,39.8,113.8,63.6,183,63.6
			c162.9,0,295-132.1,295-295C807,425,783.3,361.4,743.5,311.1z"/>
		<path id="_x3C_Compound_Path_x3E__243_" fill="#FFFFFF" d="M512,318c90.2,0,164.6,67.9,174.9,155.4l31.3-3.7
			C706.1,366.6,618.4,286.5,512,286.5c-48.6,0-93.3,16.7-128.7,44.7l19.5,24.7C432.8,332.2,470.8,318,512,318z"/>
		<path id="_x3C_Compound_Path_x3E__241_" fill="#FFFFFF" d="M687,514.2c-9.2,81.1-73.5,145.4-154.5,154.8l3.7,31.3
			c95.5-11.1,171.2-86.9,182.1-182.4L687,514.2z"/>
		<path id="_x3C_Compound_Path_x3E__240_" fill="#FFFFFF" d="M491.7,669C404,659,335.9,584.5,335.9,494.1c0-41.3,14.2-79.3,38-109.3
			l-24.7-19.5c-28,35.4-44.8,80.1-44.8,128.8c0,106.5,80.3,194.3,183.6,206.2L491.7,669z"/>
	</g>
	<g display="inline">
		<polygon id="_x3C_Compound_Path_x3E__12_" fill="#FFFFFF" points="513.1,499.4 475.1,480.4 475.1,423.4 513.1,442.4 		"/>
		<polygon id="_x3C_Compound_Path_x3E__11_" fill="#FFFFFF" points="456.1,499.4 418.1,480.4 418.1,423.4 456.1,442.4 		"/>
		<polygon id="_x3C_Compound_Path_x3E__10_" fill="#FFFFFF" points="551.1,575.4 513.1,556.4 513.1,499.4 551.1,518.4 		"/>
		<polygon id="_x3C_Compound_Path_x3E__9_" fill="#FFFFFF" points="608.1,575.4 570.1,556.4 570.1,499.4 608.1,518.4 		"/>
		<polygon id="_x3C_Compound_Path_x3E__8_" fill="#FFFFFF" points="437.1,594.4 399.1,575.4 399.1,518.4 437.1,537.4 		"/>
		<polygon id="_x3C_Compound_Path_x3E__7_" fill="#FFFFFF" points="627.1,480.4 589.1,461.4 589.1,404.4 627.1,423.4 		"/>
		<polygon id="_x3C_Compound_Path_x3E__6_" fill="#FFFFFF" points="589.1,461.4 570.1,499.4 513.1,499.4 532.1,461.4 		"/>
		<polygon id="_x3C_Compound_Path_x3E__5_" fill="#FFFFFF" points="608.1,575.4 589.1,613.4 532.1,613.4 551.1,575.4 		"/>
		<polygon id="_x3C_Compound_Path_x3E__4_" fill="#FFFFFF" points="589.1,404.4 570.1,442.4 513.1,442.4 532.1,404.4 		"/>
		<polygon id="_x3C_Compound_Path_x3E__3_" fill="#FFFFFF" points="513.1,499.4 494.1,537.4 437.1,537.4 456.1,499.4 		"/>
		<polygon id="_x3C_Compound_Path_x3E__2_" fill="#FFFFFF" points="513.1,556.4 494.1,594.4 437.1,594.4 456.1,556.4 		"/>
		<polygon id="_x3C_Compound_Path_x3E__1_" fill="#FFFFFF" points="494.1,385.4 475.1,423.4 418.1,423.4 437.1,385.4 		"/>
	</g>
</g>
<g id="Layer_2">
	<path fill="none" stroke="#FFFFFF" stroke-width="40" stroke-miterlimit="10" d="M1006.2,506.6c-0.1-190.9-219.1-489.6-489.4-489.6
		S27.6,310.8,27.5,506.7c-0.1,195.9,333.4,490.4,287,491.1s455.1-0.7,402.7,0C664.7,998.6,1006.3,697.6,1006.2,506.6z"/>
	<path fill="none" stroke="#FFFFFF" stroke-width="20" stroke-miterlimit="10" d="M738.1,1060H293.5c-9.2,0-16.8-46.1-16.8-46.1
		c0-9.2,7.6-16.8,16.8-16.8h444.6c9.2,0,16.8,7.6,16.8,16.8C754.9,1013.9,747.3,1060,738.1,1060z"/>
	<path fill="none" stroke="#FFFFFF" stroke-width="20" stroke-miterlimit="10" d="M725.9,1121.2H305.7c-8.7,0-8.7-59.5,0-59.5h420.2
		C734.6,1061.8,734.6,1121.2,725.9,1121.2z"/>
	<path fill="none" stroke="#FFFFFF" stroke-width="20" stroke-miterlimit="10" d="M714.5,1187.9H325.4c-8.4,0-15.3-46.7-15.3-46.7
		c0-8.9,6.9-16.2,15.3-16.2h389.1c8.4,0,15.3,7.3,15.3,16.2C729.7,1141.2,722.9,1187.9,714.5,1187.9z"/>
	<path fill="none" stroke="#FFFFFF" stroke-width="20" stroke-miterlimit="10" d="M701.8,1250.9H332c-8.4,0-15.4-47.6-15.4-47.6
		c0-8.4,6.9-15.4,15.4-15.4h369.8c8.4,0,15.4,6.9,15.4,15.4C717.1,1203.4,710.2,1250.9,701.8,1250.9z"/>
	<path fill="none" stroke="#FFFFFF" stroke-width="20" stroke-miterlimit="10" d="M678.5,1308H355.2c-7.4,0-13.4-43.1-13.4-43.1
		c0-7.6,6-13.9,13.4-13.9h323.4c7.4,0,13.4,6.3,13.4,13.9C692,1264.9,685.9,1308,678.5,1308z"/>
	<path fill="#FFFFFF" stroke="#FFFFFF" stroke-width="20" stroke-miterlimit="10" d="M621.4,1349.5h-93H411.3c-4.8,0-8.7-27-8.7-27
		c0-4.8-111.9-23.4,8.7-8.7h16.4h163.6h30.1c121.6-15.4,8.7,3.9,8.7,8.7C630.1,1322.5,626.2,1349.5,621.4,1349.5z"/>
	<path fill="#FFFFFF" stroke="#FFFFFF" stroke-width="7" stroke-miterlimit="10" d="M619,1349.5c0,6-46.2,11.5-103.1,11.5
		s-103.1-5.5-103.1-11.5S619,1343.5,619,1349.5z"/>
</g>
</svg>
