<?xml version="1.0" encoding="utf-8"?>
<!-- Generator: Adobe Illustrator 18.0.0, SVG Export Plug-In . SVG Version: 6.00 Build 0)  -->
<!DOCTYPE svg PUBLIC "-//W3C//DTD SVG 1.1//EN" "http://www.w3.org/Graphics/SVG/1.1/DTD/svg11.dtd">
<svg version="1.1" id="Layer_1" xmlns="http://www.w3.org/2000/svg" xmlns:xlink="http://www.w3.org/1999/xlink" x="0px" y="0px"
	 viewBox="0 0 1280 1280" enable-background="new 0 0 1280 1280" xml:space="preserve">
<polygon fill="none" stroke="#DBAF40" stroke-width="12" stroke-miterlimit="10" points="1197.3,795.3 1176.4,853.5 1226.2,857 
	1219.5,808.8 "/>
<polygon fill="none" stroke="#DBAF40" stroke-width="12" stroke-miterlimit="10" points="336.1,297.4 334.6,274.5 305,278.9 
	282.3,289.5 282.6,321.5 287.9,344.8 "/>
<polygon fill="none" stroke="#DBAF40" stroke-width="12" stroke-miterlimit="10" points="840,479.9 745.6,265.8 669.1,373 "/>
<polygon fill="none" stroke="#DBAF40" stroke-width="12" stroke-miterlimit="10" points="1002.5,437.4 962.3,396.4 926.5,437 
	918,480 1000.1,493.9 "/>
<polygon fill="none" stroke="#DBAF40" stroke-width="12" stroke-miterlimit="10" points="1150.2,999.3 1189.4,1041.2 1252.4,995.3 
	1222.9,950.8 "/>
<polygon fill="none" stroke="#DBAF40" stroke-width="12" stroke-miterlimit="10" points="480.1,301.5 464.4,288.6 436.6,290.8 
	444,320.5 480.5,344.8 491,314 "/>
<polygon fill="none" stroke="#DBAF40" stroke-width="12" stroke-miterlimit="10" points="1275,497.4 1195,291.6 1020.7,284.5 
	1143.7,535 1202.5,599.5 "/>
<polygon fill="none" stroke="#DBAF40" stroke-width="12" stroke-miterlimit="10" points="941.7,664.8 1042.8,744.8 1034.2,606.7 "/>
<polygon fill="none" stroke="#DBAF40" stroke-width="12" stroke-miterlimit="10" points="1169,675.7 1152.9,642.8 1119.7,682.5 "/>
<polygon fill="none" stroke="#DBAF40" stroke-width="12" stroke-miterlimit="10" points="1067.6,541 1076.5,566.2 1098.8,541.8 
	1074.6,530.3 "/>
<polygon fill="none" stroke="#DBAF40" stroke-width="12" stroke-miterlimit="10" points="1117.9,782 1141.8,751.5 1108.3,745.3 
	1092.9,742.3 1066.8,795.5 1092.7,803.6 1117.9,804.5 "/>
<polygon fill="none" stroke="#DBAF40" stroke-width="12" stroke-miterlimit="10" points="1053.8,1066.8 1073.2,1047.8 
	1047.6,1030.5 1029.3,1024.6 1012.3,1059 "/>
<polygon fill="none" stroke="#DBAF40" stroke-width="12" stroke-miterlimit="10" points="879.7,601.5 920.9,599.8 873.1,550.5 "/>
<polygon fill="none" stroke="#DBAF40" stroke-width="12" stroke-miterlimit="10" points="758.2,762.8 727.4,825.3 779.9,927.3 
	851.5,844.6 888.7,751.8 "/>
<polygon fill="none" stroke="#DBAF40" stroke-width="12" stroke-miterlimit="10" points="884.9,990.3 910,990.5 1012.7,1002.8 
	1030.6,1001.8 1068.1,923.5 1016.6,885.6 939.6,826.1 889,922 "/>
<polygon fill="none" stroke="#DBAF40" stroke-width="12" stroke-miterlimit="10" points="829.2,973.8 829.9,976.6 831.8,974.8 
	833.2,972.3 831.6,970.1 "/>
<polygon fill="none" stroke="#DBAF40" stroke-width="12" stroke-miterlimit="10" points="917,1210.5 965.8,1218.8 971.8,1169.2 
	943.3,1158.3 915.4,1149 894,1208.8 "/>
<polygon fill="none" stroke="#DBAF40" stroke-width="12" stroke-miterlimit="10" points="744.1,472.6 702.7,493.6 707.6,503.4 
	696,540.7 689.7,557.2 732,591 741.4,546.2 779.8,514.3 "/>
<polygon fill="none" stroke="#DBAF40" stroke-width="12" stroke-miterlimit="10" points="586.5,787.5 682.9,735.3 649.4,675.8 
	623.5,681.8 509.2,658.2 553.1,716.3 "/>
<polygon fill="none" stroke="#DBAF40" stroke-width="12" stroke-miterlimit="10" points="706.9,916 681,896.5 645.2,894.5 
	647.8,973 716.5,962.3 "/>
<polygon fill="none" stroke="#DBAF40" stroke-width="12" stroke-miterlimit="10" points="806.1,1224.3 840.6,1056.8 763,996 
	668.5,1129.2 "/>
<polygon fill="none" stroke="#DBAF40" stroke-width="12" stroke-miterlimit="10" points="549,501.9 546.9,501.4 548,503.4 
	548.4,503.1 "/>
<polygon fill="none" stroke="#DBAF40" stroke-width="12" stroke-miterlimit="10" points="481.4,617.5 478.7,630.5 482,636.8 
	491,628.8 492.5,619.3 "/>
<polygon fill="none" stroke="#DBAF40" stroke-width="12" stroke-miterlimit="10" points="569.7,954.8 583.7,929 566.9,909.1 
	545.9,916 529.9,937.8 548.5,951.3 "/>
<polygon fill="none" stroke="#DBAF40" stroke-width="12" stroke-miterlimit="10" points="604.8,1087.8 611,1068.3 573.4,1092.7 "/>
<polygon fill="none" stroke="#DBAF40" stroke-width="12" stroke-miterlimit="10" points="564.4,507.9 560.6,413.1 475.8,394.5 
	340,383.3 339.7,456.5 352.5,603.3 "/>
<polygon fill="none" stroke="#DBAF40" stroke-width="12" stroke-miterlimit="10" points="332.8,611.8 333.4,613 339.3,613.7 
	336.4,608.5 334.7,608.3 "/>
<polygon fill="none" stroke="#DBAF40" stroke-width="12" stroke-miterlimit="10" points="428.9,783.8 404,816.3 454,840.8 "/>
<polygon fill="none" stroke="#DBAF40" stroke-width="12" stroke-miterlimit="10" points="258.7,1052.1 257.6,1059.8 255.5,1066.2 
	269.5,1067.2 272,1056.5 268.3,1053.7 "/>
<polygon fill="none" stroke="#DBAF40" stroke-width="12" stroke-miterlimit="10" points="145.5,439.5 117.4,449.3 142.4,484 
	156.2,512.5 182.9,507.9 198.2,473.1 198.2,462.3 192.1,419.3 186.8,420.4 "/>
<polygon fill="none" stroke="#DBAF40" stroke-width="12" stroke-miterlimit="10" points="226.9,757.3 230.1,755.3 227.6,754 "/>
<polygon fill="none" stroke="#DBAF40" stroke-width="12" stroke-miterlimit="10" points="33.4,870.3 98.7,952.8 76.7,997.5 
	155.3,961.5 264.8,1024.7 247.9,898.1 251.9,836.1 155.7,830.6 166,829.8 "/>
<polygon fill="none" stroke="#DBAF40" stroke-width="12" stroke-miterlimit="10" points="322.2,933.8 356.8,912 353.2,901.3 
	311.7,874.3 291.8,902.8 "/>
<polygon fill="none" stroke="#DBAF40" stroke-width="12" stroke-miterlimit="10" points="66.6,541.8 33.9,741.3 107.9,731 
	272.6,754.5 281.7,640.3 239,644.5 140.3,532.7 "/>
<polygon fill="none" stroke="#DBAF40" stroke-width="12" stroke-miterlimit="10" points="81.7,785 26,797.5 65.7,839.6 "/>
<polygon fill="none" stroke="#DBAF40" stroke-width="12" stroke-miterlimit="10" points="47.4,1123 86.6,1148.7 107.2,1127.8 
	149.1,1093.8 98.8,1087.1 84.7,1080.1 41,1090.2 51.1,1097.2 "/>
<polygon fill="none" stroke="#DBAF40" stroke-width="12" stroke-miterlimit="10" points="39.2,402.1 142.7,384.5 150.9,296.6 
	64.3,287.4 "/>
<polygon fill="none" stroke="#DBAF40" stroke-width="12" stroke-miterlimit="10" points="306.7,1129.8 258,1134.3 278.7,1167.7 "/>
</svg>
