<?xml version="1.0" encoding="utf-8"?>
<!-- Generator: Adobe Illustrator 18.0.0, SVG Export Plug-In . SVG Version: 6.00 Build 0)  -->
<!DOCTYPE svg PUBLIC "-//W3C//DTD SVG 1.1//EN" "http://www.w3.org/Graphics/SVG/1.1/DTD/svg11.dtd">
<svg version="1.1" id="Layer_1" xmlns="http://www.w3.org/2000/svg" xmlns:xlink="http://www.w3.org/1999/xlink" x="0px" y="0px"
	 viewBox="0 0 1280 1280" enable-background="new 0 0 1280 1280" xml:space="preserve">
<polygon fill="none" stroke="#DBAF40" stroke-width="4" stroke-miterlimit="10" points="1197.5,541.8 1176.6,599.9 1226.4,603.4 
	1219.7,555.3 "/>
<polygon fill="none" stroke="#DBAF40" stroke-width="4" stroke-miterlimit="10" points="336.3,43.8 334.8,21 305.2,25.4 282.5,35.9 
	282.8,67.9 288.1,91.2 "/>
<polygon fill="none" stroke="#DBAF40" stroke-width="4" stroke-miterlimit="10" points="840.2,226.4 745.8,12.2 669.3,119.4 "/>
<polygon fill="none" stroke="#DBAF40" stroke-width="4" stroke-miterlimit="10" points="1002.7,183.9 962.5,142.8 926.7,183.5 
	918.2,226.5 1000.3,240.3 "/>
<polygon fill="none" stroke="#DBAF40" stroke-width="4" stroke-miterlimit="10" points="1150.4,745.8 1189.6,787.6 1252.6,741.8 
	1223.1,697.3 "/>
<polygon fill="none" stroke="#DBAF40" stroke-width="4" stroke-miterlimit="10" points="480.3,47.9 464.6,35.1 436.8,37.2 444.2,67 
	480.7,91.2 491.2,60.5 "/>
<polygon fill="none" stroke="#DBAF40" stroke-width="4" stroke-miterlimit="10" points="1275.2,243.8 1195.2,38.1 1020.9,31 
	1143.9,281.4 1202.7,345.9 "/>
<polygon fill="none" stroke="#DBAF40" stroke-width="4" stroke-miterlimit="10" points="941.9,411.2 1043,491.2 1034.4,353.1 "/>
<polygon fill="none" stroke="#DBAF40" stroke-width="4" stroke-miterlimit="10" points="1169.2,422.1 1153.1,389.3 1119.9,428.9 "/>
<polygon fill="none" stroke="#DBAF40" stroke-width="4" stroke-miterlimit="10" points="1067.8,287.5 1076.7,312.6 1099,288.2 
	1074.8,276.8 "/>
<polygon fill="none" stroke="#DBAF40" stroke-width="4" stroke-miterlimit="10" points="1118.1,528.5 1142,498 1108.5,491.7 
	1093.1,488.8 1067,542 1092.9,550.1 1118.1,550.9 "/>
<polygon fill="none" stroke="#DBAF40" stroke-width="4" stroke-miterlimit="10" points="1054,813.3 1073.4,794.2 1047.8,776.9 
	1029.5,771 1012.5,805.4 "/>
<polygon fill="none" stroke="#DBAF40" stroke-width="4" stroke-miterlimit="10" points="879.9,348 921.1,346.2 873.3,297 "/>
<polygon fill="none" stroke="#DBAF40" stroke-width="4" stroke-miterlimit="10" points="758.4,509.2 727.6,571.8 780.1,673.7 
	851.7,591.1 888.9,498.3 "/>
<polygon fill="none" stroke="#DBAF40" stroke-width="4" stroke-miterlimit="10" points="885.1,736.8 910.2,736.9 1012.9,749.3 
	1030.8,748.2 1068.3,670 1016.8,632.1 939.8,572.6 889.2,668.5 "/>
<polygon fill="none" stroke="#DBAF40" stroke-width="4" stroke-miterlimit="10" points="829.4,720.2 830.1,723.1 832,721.3 
	833.4,718.8 831.8,716.6 "/>
<polygon fill="none" stroke="#DBAF40" stroke-width="4" stroke-miterlimit="10" points="917.2,956.9 966,965.2 972,915.6 
	943.5,904.7 915.6,895.4 894.2,955.2 "/>
<polygon fill="none" stroke="#DBAF40" stroke-width="4" stroke-miterlimit="10" points="744.3,219.1 702.9,240.1 707.8,249.8 
	696.2,287.1 689.9,303.6 732.2,337.4 741.6,292.6 780,260.8 "/>
<polygon fill="none" stroke="#DBAF40" stroke-width="4" stroke-miterlimit="10" points="586.7,534 683.1,481.8 649.6,422.2 
	623.7,428.3 509.4,404.6 553.3,462.7 "/>
<polygon fill="none" stroke="#DBAF40" stroke-width="4" stroke-miterlimit="10" points="707.1,662.5 681.2,643 645.4,641 648,719.4 
	716.7,708.7 "/>
<polygon fill="none" stroke="#DBAF40" stroke-width="4" stroke-miterlimit="10" points="806.3,970.8 840.8,803.2 763.2,742.5 
	668.7,875.6 "/>
<polygon fill="none" stroke="#DBAF40" stroke-width="4" stroke-miterlimit="10" points="549.2,248.3 547.1,247.9 548.2,249.8 
	548.6,249.6 "/>
<polygon fill="none" stroke="#DBAF40" stroke-width="4" stroke-miterlimit="10" points="481.6,363.9 478.9,376.9 482.2,383.2 
	491.2,375.3 492.7,365.7 "/>
<polygon fill="none" stroke="#DBAF40" stroke-width="4" stroke-miterlimit="10" points="569.9,701.3 583.9,675.4 567.1,655.6 
	546.1,662.4 530.1,684.2 548.7,697.7 "/>
<polygon fill="none" stroke="#DBAF40" stroke-width="4" stroke-miterlimit="10" points="605,834.3 611.2,814.8 573.6,839.1 "/>
<polygon fill="none" stroke="#DBAF40" stroke-width="4" stroke-miterlimit="10" points="564.6,254.4 560.8,159.6 476,141 
	340.2,129.7 339.9,203 352.7,349.7 "/>
<polygon fill="none" stroke="#DBAF40" stroke-width="4" stroke-miterlimit="10" points="333,358.3 333.6,359.5 339.5,360.1 
	336.6,355 334.9,354.8 "/>
<polygon fill="none" stroke="#DBAF40" stroke-width="4" stroke-miterlimit="10" points="429.1,530.3 404.2,562.8 454.2,587.2 "/>
<polygon fill="none" stroke="#DBAF40" stroke-width="4" stroke-miterlimit="10" points="258.9,798.5 257.8,806.2 255.7,812.6 
	269.7,813.6 272.2,802.9 268.5,800.1 "/>
<polygon fill="none" stroke="#DBAF40" stroke-width="4" stroke-miterlimit="10" points="145.7,186 117.6,195.7 142.6,230.5 
	156.4,259 183.1,254.3 198.4,219.6 198.4,208.7 192.3,165.7 187,166.9 "/>
<polygon fill="none" stroke="#DBAF40" stroke-width="4" stroke-miterlimit="10" points="227.1,503.8 230.3,501.7 227.8,500.5 "/>
<polygon fill="none" stroke="#DBAF40" stroke-width="4" stroke-miterlimit="10" points="33.6,616.8 98.9,699.3 76.9,743.9 
	155.5,708 265,771.1 248.1,644.6 252.1,582.6 155.9,577.1 166.2,576.3 "/>
<polygon fill="none" stroke="#DBAF40" stroke-width="4" stroke-miterlimit="10" points="322.4,680.2 357,658.4 353.4,647.7 
	311.9,620.8 292,649.2 "/>
<polygon fill="none" stroke="#DBAF40" stroke-width="4" stroke-miterlimit="10" points="66.8,288.2 34.1,487.8 108.1,477.4 
	272.8,500.9 281.9,386.8 239.2,391 140.5,279.1 "/>
<polygon fill="none" stroke="#DBAF40" stroke-width="4" stroke-miterlimit="10" points="81.9,531.4 26.2,544 65.9,586.1 "/>
<polygon fill="none" stroke="#DBAF40" stroke-width="4" stroke-miterlimit="10" points="47.6,869.4 86.8,895.1 107.4,874.3 
	149.3,840.3 99,833.5 84.9,826.5 41.2,836.6 51.3,843.6 "/>
<polygon fill="none" stroke="#DBAF40" stroke-width="4" stroke-miterlimit="10" points="39.4,148.6 142.9,131 151.1,43.1 64.5,33.8 
	"/>
<polygon fill="none" stroke="#DBAF40" stroke-width="4" stroke-miterlimit="10" points="306.9,876.2 258.2,880.7 278.9,914.1 "/>
</svg>
