<?xml version="1.0" encoding="utf-8"?>
<!-- Generator: Adobe Illustrator 18.0.0, SVG Export Plug-In . SVG Version: 6.00 Build 0)  -->
<!DOCTYPE svg PUBLIC "-//W3C//DTD SVG 1.1//EN" "http://www.w3.org/Graphics/SVG/1.1/DTD/svg11.dtd">
<svg version="1.1" id="Layer_1" xmlns="http://www.w3.org/2000/svg" xmlns:xlink="http://www.w3.org/1999/xlink" x="0px" y="0px"
	 viewBox="0 0 1280 1280" enable-background="new 0 0 1280 1280" xml:space="preserve">
<polygon fill="#FAFBFA" points="900.6,1093.1 895.7,1213.6 979.6,1206 988,1125.9 "/>
<polygon fill="#FAFBFA" points="1150.4,745.8 1189.6,787.6 1252.6,741.8 1223.1,697.3 "/>
<polygon fill="#FAFBFA" points="1054,813.3 1073.4,794.2 1047.8,776.9 1029.5,771 1012.5,805.4 "/>
<polygon fill="#FAFBFA" points="1084,969.9 1095.1,1003.5 1147.2,999.4 1150.4,973.3 1107.8,950.4 1066.2,951.5 "/>
<polygon fill="#FAFBFA" points="885.1,736.8 910.2,736.9 1012.9,749.3 1030.8,748.2 1068.3,670 1016.8,632.1 939.8,572.6 
	889.2,668.5 "/>
<polygon fill="#FAFBFA" points="829.4,720.2 830.1,723.1 832,721.3 833.4,718.8 831.8,716.6 "/>
<polygon fill="#FAFBFA" points="917.2,956.9 966,965.2 972,915.6 943.5,904.7 915.6,895.4 894.2,955.2 "/>
<polygon fill="#FAFBFA" points="707.1,662.5 681.2,643 645.4,641 648,719.4 716.7,708.7 "/>
<polygon fill="#FAFBFA" points="806.3,970.8 840.8,803.2 763.2,742.5 668.7,875.6 "/>
<polygon fill="#FAFBFA" points="745.2,1153.3 787.6,1118.5 791.7,1105.1 765.9,1073.5 712.6,1091.7 702.8,1100.7 687.8,1122.8 
	709,1151.7 "/>
<polygon fill="#FAFBFA" points="569.9,701.3 583.9,675.4 567.1,655.6 546.1,662.4 530.1,684.2 548.7,697.7 "/>
<polygon fill="#FAFBFA" points="605,834.3 611.2,814.8 573.6,839.1 "/>
<polygon fill="#FAFBFA" points="621.6,975 597.7,1024.1 626.3,1035 "/>
<polygon fill="#FAFBFA" points="258.9,798.5 257.8,806.2 255.7,812.6 269.7,813.6 272.2,802.9 268.5,800.1 "/>
<polygon fill="#FAFBFA" points="410.5,974.2 437.6,1019.1 433.2,1024 461.7,991.9 487.4,970.7 474.5,917.5 450.2,867.9 387.4,915.7 
	386.1,920.3 "/>
<polygon fill="#FAFBFA" points="33.6,616.8 98.9,699.3 76.9,743.9 155.5,708 265,771.1 248.1,644.6 252.1,582.6 155.9,577.1 
	166.2,576.3 "/>
<polygon fill="#FAFBFA" points="322.4,680.2 357,658.4 353.4,647.7 311.9,620.8 292,649.2 "/>
<polygon fill="#FAFBFA" points="322,1028.6 294.4,1018.5 272.2,954.9 176.4,1033.7 201.6,1041.9 253.4,1113.4 264.9,1105 "/>
<polygon fill="#FAFBFA" points="1231,1073.4 1122.3,1051 1204.6,1133.8 "/>
<polygon fill="#FAFBFA" points="47.6,869.4 86.8,895.1 107.4,874.3 149.3,840.3 99,833.5 84.9,826.5 41.2,836.6 51.3,843.6 "/>
<polygon fill="#FAFBFA" points="114.2,1092.4 159.1,1082.4 148.2,1051.6 132.8,1032.1 99.4,1024 95.2,1047.9 105.6,1086.6 "/>
<polygon fill="#FAFBFA" points="1095.9,1157.8 1127.6,1185.5 1147.4,1167.3 1132.5,1140.1 1137.2,1121.2 1119.2,1126.3 
	1092.8,1129.8 1094.3,1154.6 1092.4,1164.3 "/>
<polygon fill="#FAFBFA" points="306.9,876.2 258.2,880.7 278.9,914.1 "/>
<polygon fill="#FAFBFA" points="381.2,1225.5 523.4,1223.4 487.1,1136.4 454.5,1113.4 350.2,1129.7 "/>
<polygon fill="#FAFBFA" points="53.7,1197.4 49.5,1206.7 41.2,1221.6 79.1,1229.8 91.3,1223 96.1,1202.4 80.8,1199.3 "/>
</svg>
