<?xml version="1.0" encoding="utf-8"?>
<!-- Generator: Adobe Illustrator 18.0.0, SVG Export Plug-In . SVG Version: 6.00 Build 0)  -->
<!DOCTYPE svg PUBLIC "-//W3C//DTD SVG 1.1//EN" "http://www.w3.org/Graphics/SVG/1.1/DTD/svg11.dtd">
<svg version="1.1" id="Layer_1" xmlns="http://www.w3.org/2000/svg" xmlns:xlink="http://www.w3.org/1999/xlink" x="0px" y="0px"
	 viewBox="0 0 1280 1280" enable-background="new 0 0 1280 1280" xml:space="preserve">
<polygon fill="none" stroke="#DBAF40" stroke-width="4" stroke-miterlimit="10" points="1197.5,541.8 1176.6,599.9 1226.4,603.4 
	1219.7,555.3 "/>
<polygon fill="none" stroke="#DBAF40" stroke-width="3.4568" stroke-miterlimit="10" points="871,1079.9 865.6,1162.4 957.1,1157.3 
	966.2,1102.3 "/>
<polygon fill="none" stroke="#DBAF40" stroke-width="4" stroke-miterlimit="10" points="336.3,43.8 334.8,21 305.2,25.4 282.5,35.9 
	282.8,67.9 288.1,91.2 "/>
<polygon fill="none" stroke="#DBAF40" stroke-width="4" stroke-miterlimit="10" points="840.2,226.4 745.8,12.2 669.3,119.4 "/>
<polygon fill="none" stroke="#DBAF40" stroke-width="4" stroke-miterlimit="10" points="1150.4,745.8 1189.6,787.6 1252.6,741.8 
	1223.1,697.3 "/>
<polygon fill="none" stroke="#DBAF40" stroke-width="4" stroke-miterlimit="10" points="480.3,47.9 464.6,35.1 436.8,37.2 444.2,67 
	480.7,91.2 491.2,60.5 "/>
<polygon fill="none" stroke="#DBAF40" stroke-width="4" stroke-miterlimit="10" points="941.9,411.2 1043,491.2 1034.4,353.1 "/>
<polygon fill="none" stroke="#DBAF40" stroke-width="4" stroke-miterlimit="10" points="1169.2,422.1 1153.1,389.3 1119.9,428.9 "/>
<polygon fill="none" stroke="#DBAF40" stroke-width="4" stroke-miterlimit="10" points="1067.8,287.5 1076.7,312.6 1099,288.2 
	1074.8,276.8 "/>
<polygon fill="none" stroke="#DBAF40" stroke-width="4" stroke-miterlimit="10" points="1118.1,528.5 1142,498 1108.5,491.7 
	1093.1,488.8 1067,542 1092.9,550.1 1118.1,550.9 "/>
<polygon fill="none" stroke="#DBAF40" stroke-width="4" stroke-miterlimit="10" points="1054,813.3 1073.4,794.2 1047.8,776.9 
	1029.5,771 1012.5,805.4 "/>
<polygon fill="none" stroke="#DBAF40" stroke-width="4" stroke-miterlimit="10" points="1084,969.9 1095.1,1003.5 1147.2,999.4 
	1150.4,973.3 1107.8,950.4 1066.2,951.5 "/>
<polygon fill="none" stroke="#DBAF40" stroke-width="4" stroke-miterlimit="10" points="879.9,348 921.1,346.2 873.3,297 "/>
<polygon fill="none" stroke="#DBAF40" stroke-width="4" stroke-miterlimit="10" points="379.3,1085.6 348.6,1148.2 401,1250.1 
	472.6,1167.6 509.8,1074.7 "/>
<polygon fill="none" stroke="#DBAF40" stroke-width="4" stroke-miterlimit="10" points="885.1,736.8 910.2,736.9 1012.9,749.3 
	1030.8,748.2 1068.3,670 1016.8,632.1 939.8,572.6 889.2,668.5 "/>
<polygon fill="none" stroke="#DBAF40" stroke-width="4" stroke-miterlimit="10" points="829.4,720.2 830.1,723.1 832,721.3 
	833.4,718.8 831.8,716.6 "/>
<polygon fill="none" stroke="#DBAF40" stroke-width="4" stroke-miterlimit="10" points="917.2,956.9 966,965.2 972,915.6 
	943.5,904.7 915.6,895.4 894.2,955.2 "/>
<polygon fill="none" stroke="#DBAF40" stroke-width="4" stroke-miterlimit="10" points="744.3,219.1 702.9,240.1 707.8,249.8 
	696.2,287.1 689.9,303.6 732.2,337.4 741.6,292.6 780,260.8 "/>
<polygon fill="none" stroke="#DBAF40" stroke-width="4" stroke-miterlimit="10" points="586.7,534 683.1,481.8 649.6,422.2 
	623.7,428.3 509.4,404.6 553.3,462.7 "/>
<polygon fill="none" stroke="#DBAF40" stroke-width="4" stroke-miterlimit="10" points="1003,239.7 1099.3,187.5 1065.8,127.9 
	1039.9,134 925.7,110.3 969.5,168.4 "/>
<polygon fill="none" stroke="#DBAF40" stroke-width="4" stroke-miterlimit="10" points="202.4,554.9 176.5,535.4 140.8,533.4 
	143.3,611.8 212,601.1 "/>
<polygon fill="none" stroke="#DBAF40" stroke-width="4" stroke-miterlimit="10" points="806.3,970.8 840.8,803.2 763.2,742.5 
	668.7,875.6 "/>
<polygon fill="none" stroke="#DBAF40" stroke-width="4" stroke-miterlimit="10" points="745.2,1153.3 787.6,1118.5 791.7,1105.1 
	765.9,1073.5 712.6,1091.7 702.8,1100.7 687.8,1122.8 709,1151.7 "/>
<polygon fill="none" stroke="#DBAF40" stroke-width="4" stroke-miterlimit="10" points="549.2,248.3 547.1,247.9 548.2,249.8 
	548.6,249.6 "/>
<polygon fill="none" stroke="#DBAF40" stroke-width="4" stroke-miterlimit="10" points="481.6,363.9 478.9,376.9 482.2,383.2 
	491.2,375.3 492.7,365.7 "/>
<polygon fill="none" stroke="#DBAF40" stroke-width="4" stroke-miterlimit="10" points="569.9,701.3 583.9,675.4 567.1,655.6 
	546.1,662.4 530.1,684.2 548.7,697.7 "/>
<polygon fill="none" stroke="#DBAF40" stroke-width="4" stroke-miterlimit="10" points="605,834.3 611.2,814.8 573.6,839.1 "/>
<polygon fill="none" stroke="#DBAF40" stroke-width="4" stroke-miterlimit="10" points="621.6,975 597.7,1024.1 626.3,1035 "/>
<polygon fill="none" stroke="#DBAF40" stroke-width="4" stroke-miterlimit="10" points="564.6,254.4 560.8,159.6 476,141 
	340.2,129.7 339.9,203 352.7,349.7 "/>
<polygon fill="none" stroke="#DBAF40" stroke-width="4" stroke-miterlimit="10" points="333,358.3 333.6,359.5 339.5,360.1 
	336.6,355 334.9,354.8 "/>
<polygon fill="none" stroke="#DBAF40" stroke-width="4" stroke-miterlimit="10" points="429.1,530.3 404.2,562.8 454.2,587.2 "/>
<polygon fill="none" stroke="#DBAF40" stroke-width="4" stroke-miterlimit="10" points="258.9,798.5 257.8,806.2 255.7,812.6 
	269.7,813.6 272.2,802.9 268.5,800.1 "/>
<polygon fill="none" stroke="#DBAF40" stroke-width="4" stroke-miterlimit="10" points="410.5,974.2 437.6,1019.1 433.2,1024 
	461.7,991.9 487.4,970.7 474.5,917.5 450.2,867.9 387.4,915.7 386.1,920.3 "/>
<polygon fill="none" stroke="#DBAF40" stroke-width="4" stroke-miterlimit="10" points="253.8,243.5 225.7,253.1 250.8,287.9 
	264.5,316.4 291.2,311.8 306.5,277.1 306.6,266.1 300.4,223.1 295.1,224.4 "/>
<polygon fill="none" stroke="#DBAF40" stroke-width="4" stroke-miterlimit="10" points="227.1,503.8 230.3,501.7 227.8,500.5 "/>
<polygon fill="none" stroke="#DBAF40" stroke-width="4" stroke-miterlimit="10" points="322.4,680.2 357,658.4 353.4,647.7 
	311.9,620.8 292,649.2 "/>
<polygon fill="none" stroke="#DBAF40" stroke-width="4" stroke-miterlimit="10" points="322,1028.6 294.4,1018.5 272.2,954.9 
	176.4,1033.7 201.6,1041.9 253.4,1113.4 264.9,1105 "/>
<polygon fill="none" stroke="#DBAF40" stroke-width="3.4568" stroke-miterlimit="10" points="1231,1066.4 1112.5,1051 
	1202.3,1107.8 "/>
<polygon fill="none" stroke="#DBAF40" stroke-width="4" stroke-miterlimit="10" points="47.6,869.4 86.8,895.1 107.4,874.3 
	149.3,840.3 99,833.5 84.9,826.5 41.2,836.6 51.3,843.6 "/>
<polygon fill="none" stroke="#DBAF40" stroke-width="4" stroke-miterlimit="10" points="147.6,206.1 251,188.4 259.2,100.5 
	172.6,91.2 "/>
<polygon fill="none" stroke="#DBAF40" stroke-width="3.4568" stroke-miterlimit="10" points="1083.8,1124.2 1118.3,1143.2 
	1139.9,1130.7 1123.6,1112.1 1128.7,1099.1 1109.2,1102.6 1080.4,1105 1082.1,1122 1080,1128.6 "/>
<polygon fill="none" stroke="#DBAF40" stroke-width="4" stroke-miterlimit="10" points="306.9,876.2 258.2,880.7 278.9,914.1 "/>
<polygon fill="none" stroke="#DBAF40" stroke-width="4" stroke-miterlimit="10" points="570.7,1265.4 712.9,1263.3 676.6,1176.3 
	644,1153.3 539.7,1169.6 "/>
</svg>
