<?xml version="1.0" encoding="utf-8"?>
<!-- Generator: Adobe Illustrator 18.0.0, SVG Export Plug-In . SVG Version: 6.00 Build 0)  -->
<!DOCTYPE svg PUBLIC "-//W3C//DTD SVG 1.1//EN" "http://www.w3.org/Graphics/SVG/1.1/DTD/svg11.dtd">
<svg version="1.1" id="SQUARE_x5F_ELEMENTS" xmlns="http://www.w3.org/2000/svg" xmlns:xlink="http://www.w3.org/1999/xlink"
	 x="0px" y="0px" viewBox="0 0 1190.5 1190.6" enable-background="new 0 0 1190.5 1190.6" xml:space="preserve">
<g id="Guide">
</g>
<path fill="none" stroke="#FAFBFA" stroke-miterlimit="10" d="M108.4,108.4v973.8h973.8V108.4H108.4z M1072.2,708.2L857.4,842.1
	L556.2,488L717,118.4h355.2V708.2z M848.8,847.4l-130.1,81.1V694.5L848.8,847.4z M708.7,1072.2H141l482.1-490.1l85.6,100.6V1072.2z
	 M548.9,479.5L241.7,118.4h464.4L548.9,479.5z M228.6,118.4l388,456.1L348.4,847.1L118.4,611.3V118.4H228.6z M118.4,625.6l223,228.6
	l-214.5,218h-8.6V625.6z M718.7,1072.2V940.3L1072.2,720v352.2H718.7z"/>
</svg>
